<?xml version="1.0" standalone="no"?>
<!DOCTYPE svg PUBLIC "-//W3C//DTD SVG 20010904//EN"
 "http://www.w3.org/TR/2001/REC-SVG-20010904/DTD/svg10.dtd">
<svg version="1.0" xmlns="http://www.w3.org/2000/svg"
 width="1024.000000pt" height="1024.000000pt" viewBox="0 0 1024.000000 1024.000000"
 preserveAspectRatio="xMidYMid meet">

<g transform="translate(0.000000,1024.000000) scale(0.100000,-0.100000)"
fill="#000000" stroke="none">
<path d="M0 5120 l0 -5120 5120 0 5120 0 0 5120 0 5120 -5120 0 -5120 0 0
-5120z m5391 3236 c339 -237 673 -418 982 -533 37 -14 66 -27 64 -30 -2 -2
-45 12 -94 31 -304 116 -575 260 -900 477 -56 38 -108 66 -116 63 -8 -3 -20
-16 -27 -30 -7 -13 -17 -24 -22 -24 -5 0 -7 3 -5 8 3 4 -6 8 -19 8 -19 2 -24
-3 -24 -22 0 -18 28 -42 143 -122 314 -218 567 -359 875 -487 89 -38 160 -70
158 -72 -7 -7 -294 116 -441 190 -227 113 -406 217 -601 349 -40 26 -82 52
-95 57 l-24 9 0 -105 0 -104 50 -38 c28 -21 120 -78 205 -126 138 -79 218
-129 150 -95 -61 31 -329 185 -368 212 -24 16 -50 27 -58 24 -8 -3 -81 -46
-162 -94 -455 -274 -838 -446 -1322 -592 -262 -79 -392 -109 -617 -146 l-33
-5 0 -174 0 -174 58 -3 57 -3 3 -55 c3 -52 5 -57 32 -67 17 -6 30 -17 30 -25
0 -10 -2 -11 -9 0 -4 7 -21 16 -37 21 -27 7 -29 11 -32 64 l-3 57 -51 0 -51 0
5 -327 c2 -181 1 -296 -2 -258 -4 39 -9 124 -11 190 -2 112 -3 115 -9 50 -4
-38 -7 -58 -8 -43 -2 33 -26 42 -81 29 -36 -8 -41 -7 -41 8 0 10 -3 21 -7 24
-11 12 -34 -47 -43 -108 -5 -38 -8 75 -9 305 -1 313 -12 611 -23 660 -2 10 18
17 77 26 89 13 262 52 405 91 52 14 129 34 171 44 42 10 87 22 100 28 90 36
414 132 417 123 11 -34 546 223 760 365 61 41 112 76 112 77 0 6 -108 -50
-137 -72 -28 -20 -220 -115 -433 -215 -84 -39 -262 -107 -281 -107 -7 0 -20
-6 -28 -14 -45 -40 -901 -274 -1144 -313 l-38 -6 3 -617 c2 -340 0 -616 -3
-614 -4 2 -9 18 -13 36 -5 23 -9 29 -15 20 -7 -11 -10 -10 -15 3 -5 14 -9 15
-21 5 -12 -10 -15 -10 -16 1 0 8 -4 5 -8 -6 -12 -28 -20 231 -25 777 -2 257
-7 472 -11 478 -4 6 -5 12 -4 14 2 1 83 17 179 35 666 126 1289 343 1766 616
106 61 530 340 539 356 12 19 38 6 196 -105z m-71 -277 c0 -10 -7 -19 -15 -19
-15 0 -21 31 -9 43 11 10 24 -3 24 -24z m1220 -321 c10 -6 7 -7 -10 -2 -14 3
-32 11 -40 16 -10 6 -7 7 10 2 14 -3 32 -11 40 -16z m-1319 -393 c0 -207 -3
-380 -7 -383 -4 -4 -4 3 -1 16 4 18 -6 34 -53 80 l-58 57 -4 68 c-2 37 0 67 5
67 4 0 7 -28 7 -61 0 -55 3 -65 28 -87 15 -13 37 -34 50 -45 l22 -20 -1 174
c-1 103 -4 164 -9 149 -7 -21 -8 -16 -11 25 -1 28 -3 56 -3 62 -1 7 -9 22 -18
33 -10 10 -18 35 -20 54 -2 33 -3 34 -20 19 -10 -8 -15 -21 -11 -27 3 -6 3 -8
-2 -4 -4 4 -14 3 -22 -4 -11 -9 -18 -7 -31 6 -15 16 -16 17 0 11 11 -5 18 0
24 17 7 23 59 78 75 78 4 0 6 6 3 13 -2 7 7 24 21 37 14 13 25 30 25 38 0 9 2
13 5 10 3 -3 6 -175 6 -383z m1516 329 c192 -60 208 -66 163 -58 -47 9 -340
103 -340 110 0 4 7 4 15 0 8 -3 81 -26 162 -52z m-897 -29 c0 -3 -31 11 -70
30 -38 19 -70 38 -70 40 0 3 32 -11 70 -30 39 -19 70 -38 70 -40z m641 -39
c331 -108 603 -186 809 -231 128 -28 171 -43 90 -30 -222 33 -950 239 -950
267 0 10 -1 10 51 -6z m504 -6 c13 -5 14 -9 5 -9 -8 0 -24 4 -35 9 -13 5 -14
9 -5 9 8 0 24 -4 35 -9z m52 -16 c-3 -3 -12 -4 -19 -1 -8 3 -5 6 6 6 11 1 17
-2 13 -5z m170 -39 c194 -45 496 -105 528 -105 15 0 24 -4 20 -9 -3 -5 -22 -7
-43 -4 -86 12 -652 140 -661 149 -8 7 5 5 156 -31z m-1117 -15 c8 -5 11 -10 5
-10 -5 0 -17 5 -25 10 -8 5 -10 10 -5 10 6 0 17 -5 25 -10z m-1116 -24 c25
-10 37 -24 46 -50 11 -34 9 -39 -18 -76 -16 -22 -41 -49 -56 -61 -33 -26 -53
-18 -111 41 -37 37 -37 38 -21 69 18 33 89 91 113 91 7 0 29 -6 47 -14z m617
-23 c48 -28 56 -90 17 -128 l-21 -20 17 25 c25 38 20 72 -15 106 l-31 29 -29
-35 c-16 -19 -29 -44 -29 -56 0 -25 45 -74 68 -74 8 0 12 -3 9 -6 -12 -12 -63
17 -80 45 -24 42 -21 59 17 97 39 39 39 39 77 17z m9 -77 c0 -21 -30 -28 -46
-11 -9 8 -21 15 -27 15 -7 1 -1 7 13 14 27 16 60 5 60 -18z m-679 -437 l2
-316 64 -66 65 -66 175 0 c97 -1 178 -3 181 -6 3 -3 -78 -5 -181 -5 l-185 0
-63 65 c-34 35 -64 63 -68 61 -3 -2 -5 107 -4 242 1 136 3 285 3 331 0 46 2
82 4 80 3 -3 6 -146 7 -320z m-308 274 c3 -5 -16 -7 -41 -5 -80 5 -90 9 -25
11 34 0 64 -2 66 -6z m2804 -51 c-20 -21 -37 -43 -37 -50 0 -6 -6 -9 -14 -6
-9 4 1 19 33 49 56 55 69 59 18 7z m-2746 -18 c9 -11 2 -9 -18 6 -18 13 -33
25 -33 27 0 8 38 -17 51 -33z m-243 -11 c-43 -2 -113 -2 -155 0 -43 1 -8 3 77
3 85 0 120 -2 78 -3z m152 -40 c34 -19 43 -46 28 -79 -11 -23 -20 -28 -45 -25
-7 1 -13 -3 -13 -8 0 -19 -57 10 -69 35 -12 28 -2 58 28 81 22 17 38 16 71 -4z
m2797 -80 c-2 -16 -4 -3 -4 27 0 30 2 43 4 28 2 -16 2 -40 0 -55z m-1413 45
c24 -38 -36 -77 -65 -42 -12 15 -12 16 9 10 16 -6 22 -3 22 8 0 9 -7 16 -15
16 -8 0 -15 4 -15 8 0 28 47 27 64 0z m-1663 -120 c57 -61 59 -86 11 -145 -15
-19 -36 -46 -47 -60 -18 -22 -20 -42 -23 -197 l-3 -173 42 -36 c23 -20 45 -34
50 -31 5 3 9 -1 9 -10 0 -8 61 -70 136 -138 75 -67 168 -153 207 -189 l71 -67
4 -138 c4 -133 5 -138 29 -158 39 -30 267 -230 366 -319 48 -43 87 -73 87 -65
0 8 16 29 35 48 19 19 35 30 35 26 0 -5 -8 -15 -17 -22 -10 -7 -16 -15 -13
-18 9 -8 281 255 274 265 -3 5 1 7 8 4 7 -3 40 19 72 49 l59 53 -1 129 0 129
31 34 c26 27 354 335 460 432 l29 26 -2 184 -1 184 -39 40 c-33 33 -40 48 -40
79 0 32 7 44 42 77 24 22 48 39 54 39 21 0 104 -98 104 -124 0 -15 -18 -44
-50 -79 l-50 -55 0 -175 0 -175 -231 -225 -232 -224 2 -150 2 -149 -83 -76
c-46 -42 -119 -106 -162 -144 -43 -38 -126 -113 -184 -166 -58 -54 -111 -98
-117 -98 -6 0 -64 48 -130 106 -66 59 -158 139 -205 178 -47 38 -113 97 -147
130 l-63 59 0 152 0 151 -83 80 c-45 43 -134 126 -197 184 -62 58 -130 121
-151 140 l-36 35 -2 180 c-2 120 -6 185 -14 196 -61 83 -77 111 -79 131 -2 13
-7 26 -12 30 -5 3 10 26 35 51 73 73 95 74 160 5z m-663 10 c10 -13 15 -39 13
-70 0 -10 -14 -24 -30 -32 l-28 -15 2 -561 3 -562 33 -35 c19 -19 79 -76 134
-126 55 -50 102 -96 104 -101 7 -17 -97 73 -196 169 l-93 91 0 569 c0 313 -4
571 -8 574 -17 11 -33 51 -26 64 26 45 69 62 92 35z m1034 -619 c68 -65 126
-119 131 -119 5 0 15 -6 22 -14 15 -15 2 -36 -21 -36 -20 0 -263 250 -266 274
-2 12 -1 136 2 276 l5 255 3 -258 2 -258 122 -120z m2228 601 c26 -26 25 -36
-5 -66 -21 -21 -27 -23 -45 -12 -29 18 -36 55 -15 78 23 25 40 25 65 0z
m-2265 -130 l20 -25 -22 19 c-13 11 -23 24 -23 29 0 6 1 8 3 6 1 -2 11 -15 22
-29z m610 -30 c24 -9 45 -38 45 -62 0 -22 -24 -49 -45 -52 -13 -2 -22 -13 -26
-32 -7 -29 -7 -28 -8 6 -1 23 -4 30 -10 22 -10 -16 -24 -1 -40 42 -10 24 -8
31 19 58 17 16 31 41 31 56 l2 27 4 -28 c3 -18 13 -31 28 -37z m2085 -14 c0
-2 -16 -6 -35 -8 -19 -2 -35 0 -35 4 0 4 16 8 35 8 19 0 35 -2 35 -4z m-3436
-70 c35 -33 36 -37 36 -104 0 -68 -1 -70 -30 -82 -38 -16 -38 -26 5 -70 l35
-36 0 -328 1 -328 52 -60 c29 -32 106 -108 172 -168 66 -60 149 -136 185 -169
36 -33 68 -61 73 -61 4 0 24 -15 43 -32 20 -18 42 -37 50 -41 8 -4 14 -15 14
-24 0 -9 3 -14 6 -10 3 3 67 -55 142 -129 75 -74 139 -134 142 -134 3 0 16
-16 30 -35 34 -46 284 -302 337 -343 l42 -33 253 249 c139 137 271 264 293
282 22 19 112 104 200 189 88 86 225 217 305 291 80 74 166 155 193 179 l47
45 0 214 0 213 -91 -78 c-49 -43 -104 -89 -120 -103 -29 -25 -30 -26 -30 -127
0 -115 -6 -128 -65 -139 -27 -5 -53 -26 -120 -98 -46 -50 -133 -136 -192 -190
-59 -55 -190 -179 -292 -276 -221 -211 -378 -350 -396 -350 -13 0 -63 46 -309
281 -55 53 -147 139 -205 191 -58 53 -180 173 -273 267 -159 163 -169 171
-206 171 -21 0 -43 6 -48 13 -5 6 -7 41 -4 77 l6 65 63 3 c57 3 63 1 71 -20 4
-13 5 -49 1 -81 l-6 -59 210 -201 c116 -111 243 -231 281 -267 39 -36 115
-109 170 -161 55 -53 113 -106 130 -120 16 -13 44 -38 61 -54 17 -17 43 -36
57 -44 31 -16 -4 -45 347 289 250 237 309 292 455 426 l120 109 0 88 c0 105 8
114 113 110 7 -1 12 12 12 32 0 29 11 43 83 108 45 42 103 93 129 114 l48 38
0 107 0 106 85 80 c79 74 85 82 85 119 0 32 -5 43 -30 61 -36 27 -41 27 -74 1
-21 -17 -26 -29 -26 -66 0 -29 6 -53 17 -65 9 -10 13 -21 9 -26 -18 -17 -46
41 -46 93 0 51 2 55 41 84 l42 30 43 -30 c42 -29 44 -32 44 -80 0 -50 0 -51
-85 -131 l-85 -80 0 -332 0 -331 -57 -50 c-83 -72 -329 -313 -825 -806 l-437
-434 -237 230 c-130 127 -425 417 -655 646 l-419 416 0 158 c0 137 -2 161 -17
178 -17 19 -17 20 0 14 16 -6 17 5 17 152 l0 158 -74 69 c-40 38 -81 75 -90
82 -11 9 -16 29 -16 67 0 46 3 56 22 66 12 6 33 22 47 35 35 32 52 30 95 -10z
m814 -3 c-21 -2 -55 -2 -75 0 -21 2 -4 4 37 4 41 0 58 -2 38 -4z m2570 -45 c7
-7 12 -17 12 -22 0 -8 -3 -7 -8 0 -4 6 -16 16 -27 22 -15 8 -16 11 -4 12 8 0
20 -5 27 -12z m-4109 -30 c-7 -14 -6 -28 6 -51 15 -31 15 -31 -2 -15 -20 21
-26 85 -7 85 10 0 10 -5 3 -19z m3481 -8 l25 -19 -21 -22 c-27 -27 -64 -18
-64 15 0 20 17 46 30 46 3 0 16 -9 30 -20z m604 14 c20 -8 21 -53 2 -60 -18
-7 -56 13 -56 29 0 14 20 37 31 37 4 0 14 -3 23 -6z m-4007 -20 c3 -8 -1 -22
-9 -31 -12 -12 -20 -13 -37 -4 -21 12 -27 31 -14 44 12 13 54 7 60 -9z m4037
-47 c-5 -13 -44 -41 -44 -31 0 5 41 43 47 44 1 0 0 -6 -3 -13z m-4077 -49 c-3
-7 -5 -2 -5 12 0 14 2 19 5 13 2 -7 2 -19 0 -25z m2580 -195 c-75 -76 -140
-134 -144 -129 -8 8 268 277 277 270 2 -3 -57 -66 -133 -141z m-787 71 c0 -8
-9 -14 -20 -14 -19 0 -27 19 -14 33 10 9 34 -4 34 -19z m480 -4 c0 -5 -4 -10
-10 -10 -5 0 -10 5 -10 10 0 6 5 10 10 10 6 0 10 -4 10 -10z m1670 -55 c0 -2
-28 -23 -62 -46 -35 -23 -58 -36 -52 -30 10 11 105 79 112 80 1 1 2 -1 2 -4z
m-3003 -62 c-3 -10 -5 -4 -5 12 0 17 2 24 5 18 2 -7 2 -21 0 -30z m-70 -5 c-3
-7 -5 -2 -5 12 0 14 2 19 5 13 2 -7 2 -19 0 -25z m40 0 c-3 -7 -5 -2 -5 12 0
14 2 19 5 13 2 -7 2 -19 0 -25z m73 2 c0 -16 -4 -30 -8 -30 -5 0 -7 14 -4 30
2 17 6 30 8 30 2 0 4 -13 4 -30z m1040 20 c0 -5 -15 -17 -32 -26 l-33 -16 30
26 c34 29 35 29 35 16z m-1405 -129 c30 -30 52 -57 50 -60 -3 -2 -30 20 -60
50 -47 46 -55 59 -53 89 1 33 1 34 5 5 3 -20 22 -48 58 -84z m2872 52 c-3 -10
-5 -2 -5 17 0 19 2 27 5 18 2 -10 2 -26 0 -35z m-2379 -156 c51 -49 90 -92 88
-94 -2 -3 -64 55 -138 128 -73 72 -113 115 -88 94 25 -21 87 -78 138 -128z
m722 148 c0 -5 -186 -135 -194 -135 -3 0 -6 4 -6 10 0 10 31 31 139 97 57 34
61 36 61 28z m347 -100 c89 -49 160 -91 158 -93 -2 -2 -72 35 -157 82 l-153
85 -4 -62 -3 -62 -119 -60 -119 -59 0 -102 0 -101 94 -72 c51 -39 99 -78 106
-86 24 -29 30 -15 30 65 0 80 -9 108 -47 148 -16 17 -17 30 -1 14 7 -7 16 -12
21 -12 6 0 -23 27 -64 60 -41 33 -75 64 -77 68 -1 5 38 30 88 56 l90 48 0
-286 c-1 -241 -3 -285 -15 -279 -7 5 -79 63 -159 130 l-145 123 -3 154 -3 154
35 23 c56 37 274 159 280 156 3 -1 78 -42 167 -92z m1630 -237 c-1 -57 -3 -11
-3 102 0 113 2 159 3 103 2 -57 2 -149 0 -205z m-3752 258 c11 -2 -10 -4 -47
-5 -38 0 -68 2 -68 7 0 7 67 6 115 -2z m431 -154 c1 -7 0 -8 -3 -2 -9 19 -43
11 -43 -10 0 -25 28 -38 42 -19 8 12 9 11 5 -1 -5 -20 -37 -19 -50 1 -15 24
-1 51 25 47 12 -2 23 -9 24 -16z m3131 -7 c1 -15 0 -15 -3 -3 -3 9 -13 19 -22
22 -12 3 -12 4 3 3 12 -1 21 -10 22 -22z m-29 -29 c12 -3 12 -4 -3 -3 -11 1
-20 9 -21 17 0 8 1 10 3 3 2 -6 12 -14 21 -17z m-4229 -398 c0 -189 -3 -265
-10 -249 -7 19 -7 342 1 519 0 1 2 2 5 2 3 0 5 -123 4 -272z m361 10 c12 -75
20 -142 18 -149 -5 -15 -45 228 -52 316 -5 55 -5 56 4 15 4 -25 18 -107 30
-182z m4989 -13 c0 -104 -4 -212 -9 -240 -4 -32 -8 43 -9 205 0 168 3 250 9
240 5 -8 9 -98 9 -205z m-1059 192 c0 -1 -57 -58 -127 -127 -70 -69 -119 -114
-108 -100 17 23 227 230 233 230 1 0 2 -1 2 -3z m-3653 -74 c-3 -10 -5 -4 -5
12 0 17 2 24 5 18 2 -7 2 -21 0 -30z m1684 -10 c13 -16 12 -17 -3 -4 -10 7
-18 15 -18 17 0 8 8 3 21 -13z m-1667 -45 c-3 -5 9 0 28 12 47 28 68 26 69 -7
l1 -28 7 29 c5 22 11 6 29 -80 36 -168 118 -509 147 -609 117 -408 272 -769
469 -1090 l19 -30 -30 32 c-17 18 -32 30 -35 28 -2 -3 -29 11 -58 30 -30 19
-58 35 -62 35 -4 0 -14 12 -23 28 -20 36 -82 106 -65 74 6 -13 10 -26 8 -28
-9 -8 -178 356 -237 507 -111 288 -193 596 -260 981 -24 131 -26 161 -12 138
6 -8 7 -18 5 -22z m1721 2 c10 -11 16 -20 13 -20 -3 0 -13 9 -23 20 -10 11
-16 20 -13 20 3 0 13 -9 23 -20z m2602 -2 c-3 -8 -6 -5 -6 6 -1 11 2 17 5 13
3 -3 4 -12 1 -19z m-27 -164 c-35 -222 -90 -484 -132 -624 -65 -224 -199 -623
-222 -662 -11 -20 -42 -72 -67 -115 -25 -43 -77 -136 -115 -207 -120 -222
-403 -627 -551 -787 -141 -152 -377 -363 -995 -887 -107 -91 -187 -152 -196
-150 -12 3 -17 13 -15 36 1 43 17 59 79 87 28 12 55 28 58 34 4 6 25 20 47 32
53 26 133 86 244 180 50 43 160 134 245 205 173 142 299 265 410 399 40 50
120 138 176 197 169 176 312 369 439 593 73 129 152 291 153 315 1 31 11 60
50 141 99 208 151 330 175 404 50 157 87 284 86 292 -1 4 3 20 9 34 10 25 132
589 132 612 0 6 2 8 6 5 3 -3 -4 -64 -16 -134z m-320 -66 c-53 -282 -181 -719
-285 -974 -48 -115 -165 -354 -224 -456 -71 -123 -250 -390 -316 -473 -158
-198 -462 -504 -720 -726 -117 -100 -423 -349 -430 -349 -3 0 -5 44 -5 99 l0
99 53 44 c28 24 100 81 158 125 287 221 687 609 859 833 336 439 546 896 718
1571 28 106 56 221 62 255 12 60 12 60 56 73 24 7 53 11 64 8 11 -3 21 0 21 6
1 7 3 5 6 -5 2 -9 -5 -67 -17 -130z m-1555 22 c-10 -11 -23 -20 -29 -20 -6 0
0 9 14 20 32 25 38 25 15 0z m-2688 -42 c-3 -7 -5 -2 -5 12 0 14 2 19 5 13 2
-7 2 -19 0 -25z m1923 -33 c0 -30 -4 -55 -10 -55 -5 0 -10 25 -10 55 0 30 5
55 10 55 6 0 10 -25 10 -55z m730 35 c0 -5 -5 -10 -11 -10 -5 0 -7 5 -4 10 3
6 8 10 11 10 2 0 4 -4 4 -10z m-1298 -225 c101 -98 246 -241 323 -317 77 -75
165 -163 195 -195 67 -71 -220 207 -495 479 l-200 198 -318 0 c-175 0 -316 3
-314 8 3 4 145 7 316 7 l310 0 183 -180z m2658 175 c0 -5 -5 -10 -11 -10 -5 0
-7 5 -4 10 3 6 8 10 11 10 2 0 4 -4 4 -10z m-1373 -22 c-3 -8 -6 -5 -6 6 -1
11 2 17 5 13 3 -3 4 -12 1 -19z m866 15 c-24 -2 -62 -2 -85 0 -24 2 -5 4 42 4
47 0 66 -2 43 -4z m125 0 c-10 -2 -28 -2 -40 0 -13 2 -5 4 17 4 22 1 32 -1 23
-4z m-268 -6 c0 -2 -12 -14 -27 -28 l-28 -24 24 28 c23 25 31 32 31 24z
m-3323 -139 c-3 -8 -6 -5 -6 6 -1 11 2 17 5 13 3 -3 4 -12 1 -19z m3023 -142
c0 -2 -8 -10 -17 -17 -16 -13 -17 -12 -4 4 13 16 21 21 21 13z m-2440 -10 c0
-3 -4 -8 -10 -11 -5 -3 -10 -1 -10 4 0 6 5 11 10 11 6 0 10 -2 10 -4z m526
-95 c31 -29 55 -53 53 -55 -2 -2 -40 30 -84 71 -44 41 -68 66 -53 55 15 -10
53 -42 84 -71z m1874 66 c0 -2 -19 -21 -42 -42 l-43 -40 40 43 c36 39 45 47
45 39z m266 -86 c-7 -10 23 -38 46 -42 15 -4 15 -8 3 -43 -20 -58 -57 -72
-103 -40 -40 28 -26 89 28 118 31 18 32 18 26 7z m-366 -4 c0 -1 -62 -63 -137
-137 l-138 -135 135 138 c125 127 140 142 140 134z m-1606 -29 c9 -12 16 -33
16 -47 0 -13 8 -34 18 -45 16 -20 16 -20 -1 -7 -14 11 -23 11 -43 2 -37 -17
-52 -14 -79 15 -30 33 -32 57 -5 84 27 27 75 26 94 -2z m2387 -4 c11 -13 11
-20 -2 -42 -25 -46 -79 -37 -79 12 0 43 53 63 81 30z m-2796 -29 c0 -25 -4
-31 -26 -33 -35 -4 -54 20 -39 48 8 15 19 20 38 18 23 -2 27 -8 27 -33z m-607
-67 c14 -54 8 -61 -12 -13 -18 43 -20 55 -7 55 5 0 13 -19 19 -42z m3947 -9
l-16 -34 7 35 c7 41 16 59 21 44 2 -6 -3 -26 -12 -45z m-3195 -96 c0 -8 -9 0
-50 45 l-45 47 48 -45 c26 -24 47 -45 47 -47z m590 -159 c63 -61 138 -132 165
-159 l50 -48 -50 42 c-27 22 -122 112 -210 198 -89 87 -141 140 -116 118 25
-22 97 -90 161 -151z m-559 129 c13 -16 12 -17 -3 -4 -17 13 -22 21 -14 21 2
0 10 -8 17 -17z m3121 -95 c-31 -33 -61 -70 -65 -84 -5 -13 -13 -24 -19 -24
-6 0 -7 7 -4 16 3 9 6 22 6 30 0 20 123 141 132 130 3 -5 -19 -36 -50 -68z
m-3831 -9 c22 -29 43 -79 35 -86 -6 -6 -126 141 -126 154 0 18 59 -26 91 -68z
m1131 -284 c109 -104 198 -193 198 -198 0 -10 -194 173 -480 453 l-115 112 99
-88 c55 -49 189 -174 298 -279z m3 177 c82 -81 176 -171 208 -201 32 -29 56
-55 54 -58 -6 -6 -427 391 -427 403 0 15 32 -14 165 -144z m-474 -79 c6 -17 4
-20 -12 -16 -23 6 -32 19 -24 34 10 15 27 6 36 -18z m2509 13 c0 -7 -8 -16
-19 -19 -14 -3 -17 0 -14 14 6 22 33 26 33 5z m-2370 -153 l105 -108 -99 95
c-55 52 -106 101 -113 108 -8 6 -11 12 -6 12 5 0 56 -48 113 -107z m1965 -69
c-82 -79 -153 -144 -157 -144 -4 0 55 58 130 129 75 70 143 135 151 145 7 9
16 16 20 15 3 0 -61 -65 -144 -145z m-85 23 c0 -2 -15 -16 -32 -33 l-33 -29
29 33 c28 30 36 37 36 29z m-1984 -68 c10 -17 -13 -36 -27 -22 -12 12 -4 33
11 33 5 0 12 -5 16 -11z m2424 -4 c0 -8 -4 -15 -10 -15 -5 0 -10 7 -10 15 0 8
5 15 10 15 6 0 10 -7 10 -15z m-2389 -52 l24 -26 -27 19 c-15 10 -28 22 -28
27 0 12 5 8 31 -20z m1525 -19 c-4 -12 -10 -14 -17 -7 -5 5 -7 17 -3 27 4 12
10 14 17 7 5 -5 7 -17 3 -27z m-698 3 c2 -10 -3 -17 -12 -17 -18 0 -29 16 -21
31 9 14 29 6 33 -14z m376 -19 c15 -25 -3 -52 -38 -56 -20 -3 -28 2 -35 20
-13 33 4 60 36 56 14 -2 31 -11 37 -20z m-1509 -28 c9 -16 13 -30 11 -30 -3 0
-12 14 -21 30 -9 17 -13 30 -11 30 3 0 12 -13 21 -30z m634 -23 c-2 -3 -15 10
-28 27 l-24 31 28 -27 c16 -15 27 -29 24 -31z m26 -17 c3 -5 1 -10 -4 -10 -6
0 -11 5 -11 10 0 6 2 10 4 10 3 0 8 -4 11 -10z m55 -55 c19 -19 32 -35 29 -35
-3 0 -20 16 -39 35 -19 19 -32 35 -29 35 3 0 20 -16 39 -35z m-97 -134 c18 -7
27 -18 27 -33 -1 -55 -44 -64 -55 -11 -3 15 -13 41 -21 58 -15 29 -15 29 3 13
10 -9 30 -21 46 -27z m1742 -25 c0 -35 -27 -56 -52 -40 -25 16 -26 31 -3 37
11 3 20 10 20 17 0 6 -5 8 -12 4 -7 -4 -8 -3 -4 5 5 7 18 11 29 9 17 -2 22
-10 22 -32z m-535 -262 c0 -14 -21 -19 -33 -7 -9 9 13 34 24 27 5 -3 9 -12 9
-20z m-676 1 c4 -10 -1 -15 -14 -15 -20 0 -26 11 -13 23 10 11 20 8 27 -8z
m336 -9 c0 -8 -4 -17 -9 -21 -12 -7 -24 12 -16 25 9 15 25 12 25 -4z m-655
-310 c22 -22 0 -3 -50 41 -49 45 -126 119 -170 164 -51 53 -32 38 50 -41 72
-68 148 -142 170 -164z m90 -76 c21 -22 37 -40 34 -40 -3 0 -23 18 -44 40 -21
22 -37 40 -34 40 3 0 23 -18 44 -40z m80 -70 c10 -11 16 -20 13 -20 -3 0 -13
9 -23 20 -10 11 -16 20 -13 20 3 0 13 -9 23 -20z m80 -70 c10 -11 16 -20 13
-20 -3 0 -13 9 -23 20 -10 11 -16 20 -13 20 3 0 13 -9 23 -20z m405 -56 c0 -8
-7 -14 -15 -14 -15 0 -21 21 -9 33 10 9 24 -2 24 -19z m-299 -31 c13 -16 12
-17 -3 -4 -17 13 -22 21 -14 21 2 0 10 -8 17 -17z m240 -380 c13 -16 12 -17
-3 -4 -10 7 -18 15 -18 17 0 8 8 3 21 -13z"/>
<path d="M5290 8396 c0 -3 9 -10 20 -16 11 -6 20 -8 20 -6 0 3 -9 10 -20 16
-11 6 -20 8 -20 6z"/>
<path d="M5202 7440 c0 -14 2 -19 5 -12 2 6 2 18 0 25 -3 6 -5 1 -5 -13z"/>
<path d="M4526 7085 c-4 -12 -1 -16 11 -13 18 3 21 20 5 26 -5 1 -12 -4 -16
-13z"/>
<path d="M6188 6965 c-50 -48 -50 -81 -1 -135 l36 -41 44 43 c23 23 43 50 43
61 0 10 -19 38 -42 63 l-43 44 -37 -35z m72 -45 c26 -26 25 -42 -5 -70 l-26
-24 -31 32 -32 31 24 26 c28 30 44 31 70 5z"/>
<path d="M6222 6879 c2 -6 8 -10 13 -10 5 0 11 4 13 10 2 6 -4 11 -13 11 -9 0
-15 -5 -13 -11z"/>
<path d="M4195 6945 c-28 -37 -30 -65 -5 -73 13 -4 13 -3 2 10 -11 13 -9 20
11 43 21 25 25 26 45 14 35 -21 39 -55 11 -86 -13 -14 -17 -22 -9 -18 27 16
60 49 60 60 0 11 -71 85 -82 85 -3 0 -18 -16 -33 -35z"/>
<path d="M3580 6956 c0 -8 7 -16 15 -20 10 -4 15 1 15 14 0 11 -7 20 -15 20
-8 0 -15 -6 -15 -14z"/>
<path d="M6847 6974 c-12 -12 -8 -41 7 -53 17 -14 39 9 34 36 -3 18 -29 29
-41 17z"/>
<path d="M5238 6793 c10 -4 9 -8 -4 -17 -19 -14 -11 -36 12 -36 8 0 17 7 20
15 7 17 -12 45 -30 44 -6 0 -6 -3 2 -6z"/>
<path d="M3886 6624 c3 -35 14 -43 14 -11 0 14 -4 28 -9 31 -4 3 -7 -6 -5 -20z"/>
<path d="M3805 6579 c-3 -3 2 -13 11 -20 17 -14 69 -2 66 16 -2 11 -71 15 -77
4z"/>
<path d="M4215 5902 c-11 -2 -23 -9 -27 -16 -10 -15 -10 -72 0 -62 4 4 7 18 7
29 0 18 6 22 30 22 27 0 30 -3 33 -37 3 -35 1 -38 -25 -39 -15 -1 -31 -1 -35
0 -5 0 -8 -3 -8 -9 0 -5 23 -10 50 -10 l50 0 0 60 c0 41 -4 60 -12 61 -7 0
-20 2 -28 3 -8 1 -24 0 -35 -2z"/>
<path d="M6161 5892 c-5 -10 -6 -35 -1 -62 5 -25 9 -48 10 -51 0 -8 61 5 79
15 15 10 13 77 -3 99 -18 23 -72 23 -85 -1z m67 -54 c-4 -29 -38 -38 -38 -10
0 22 8 32 27 32 9 0 13 -8 11 -22z"/>
<path d="M3696 4097 c3 -10 9 -15 12 -12 3 3 0 11 -7 18 -10 9 -11 8 -5 -6z"/>
<path d="M5965 3252 c-202 -199 -408 -383 -565 -502 -47 -35 -104 -82 -127
-104 l-43 -39 0 -78 c0 -44 3 -79 7 -79 9 0 281 220 433 352 158 136 431 403
550 538 l84 95 -71 -67 c-77 -74 -121 -90 -109 -42 4 15 10 39 13 55 3 16 9
29 13 29 4 0 10 9 13 20 3 11 4 20 4 20 -1 0 -92 -89 -202 -198z"/>
<path d="M6202 4868 c-11 -11 -18 -68 -8 -68 2 0 11 -3 19 -6 10 -3 20 3 27
15 6 12 7 21 3 20 -21 -4 -33 2 -33 16 0 8 5 15 10 15 6 0 10 5 10 10 0 14
-13 13 -28 -2z"/>
<path d="M4197 4876 c-22 -22 -22 -39 1 -59 39 -35 78 -11 44 26 -11 12 -21
28 -24 36 -3 11 -7 10 -21 -3z"/>
<path d="M6612 4868 c-17 -17 -15 -35 5 -42 18 -7 34 11 30 33 -3 19 -20 24
-35 9z"/>
<path d="M5216 4013 c-14 -15 -5 -43 14 -43 13 0 20 7 20 19 0 19 -23 35 -34
24z"/>
</g>
</svg>
